<?xml version="1.0" standalone="no"?>
<!DOCTYPE svg PUBLIC "-//W3C//DTD SVG 20010904//EN"
 "http://www.w3.org/TR/2001/REC-SVG-20010904/DTD/svg10.dtd">
<svg version="1.0" xmlns="http://www.w3.org/2000/svg"
 width="2231.000000pt" height="2231.000000pt" viewBox="0 0 2231.000000 2231.000000"
 preserveAspectRatio="xMidYMid meet">
<metadata>
Created by potrace 1.14, written by Peter Selinger 2001-2017
</metadata>
<g transform="translate(0.000000,2231.000000) scale(0.100000,-0.100000)"
fill="#000000" stroke="none">
<path d="M2470 12672 l0 -9639 8675 0 8675 0 0 9639 0 9638 -8675 0 -8675 0 0
-9638z"/>
<path d="M3798 2255 c-2 -2 -32 -6 -68 -10 -173 -18 -266 -43 -420 -113 -212
-97 -419 -324 -466 -512 -2 -8 -8 -35 -15 -60 -6 -25 -9 -85 -7 -135 4 -74 9
-100 33 -147 70 -143 234 -244 523 -324 318 -87 381 -116 414 -191 54 -122
-71 -284 -250 -322 -168 -35 -311 11 -364 116 -19 41 -23 63 -22 146 l0 97
-75 -5 c-42 -2 -114 -7 -161 -10 -47 -3 -119 -7 -160 -10 -134 -8 -255 -17
-257 -19 -10 -9 -20 -138 -18 -220 8 -264 132 -428 373 -490 143 -37 214 -44
437 -42 121 2 236 6 255 9 19 4 49 9 65 12 66 11 88 16 163 40 176 56 319 142
452 274 101 100 142 155 198 266 96 188 112 388 42 525 -82 161 -261 253 -715
366 -82 20 -169 46 -193 57 -87 40 -100 112 -34 192 61 73 146 105 269 100
158 -6 226 -69 227 -209 l0 -68 115 6 c140 8 290 17 351 21 25 1 75 3 111 4
64 1 67 2 74 29 4 15 9 67 10 116 7 232 -84 374 -287 450 -66 25 -87 31 -158
42 -19 3 -46 8 -60 11 -25 5 -377 12 -382 8z"/>
<path d="M18978 2255 c-2 -1 -39 -5 -83 -9 -91 -7 -133 -13 -190 -28 -22 -5
-51 -12 -65 -15 -32 -5 -140 -48 -205 -81 -284 -142 -481 -434 -469 -695 1
-37 9 -84 16 -105 16 -49 70 -132 105 -163 90 -79 246 -154 423 -203 30 -8
107 -29 170 -46 149 -41 225 -81 251 -131 80 -157 -108 -349 -343 -349 -155 0
-257 65 -284 181 -7 28 -6 134 0 167 5 25 24 24 -234 7 -41 -3 -115 -7 -165
-10 -144 -8 -250 -17 -254 -20 -15 -15 -23 -267 -9 -335 32 -164 123 -281 263
-339 143 -60 242 -75 500 -75 236 -1 308 4 420 31 17 4 32 7 35 8 43 9 138 44
197 71 68 32 171 90 183 104 3 3 23 19 45 35 117 87 231 228 300 370 111 231
98 452 -35 598 -86 96 -331 201 -608 262 -82 18 -217 57 -241 69 -37 20 -71
62 -71 90 0 39 44 110 88 143 130 99 385 71 435 -47 5 -14 13 -59 16 -100 4
-46 10 -74 17 -73 6 1 55 4 110 7 54 3 142 9 194 12 135 9 186 12 258 14 78 3
79 5 81 150 3 213 -56 326 -218 413 -70 38 -173 69 -271 82 -54 7 -356 16
-362 10z"/>
<path d="M5267 2138 c-31 -99 -231 -768 -245 -818 -6 -19 -54 -179 -107 -355
-53 -176 -105 -351 -116 -390 -11 -38 -39 -128 -61 -200 -22 -71 -47 -155 -55
-185 -8 -30 -21 -74 -29 -98 -8 -24 -12 -47 -10 -50 2 -4 154 -7 337 -7 l333
0 32 100 c17 55 64 210 104 345 39 135 76 256 81 270 5 14 11 34 14 45 2 11
16 58 30 105 15 47 28 94 30 105 3 11 9 31 15 45 9 24 68 219 75 250 2 8 23
80 48 160 25 80 47 154 50 165 3 15 104 352 173 578 5 16 -15 17 -334 17
l-340 0 -25 -82z"/>
<path d="M6442 2203 c-6 -10 -24 -70 -42 -133 -18 -63 -36 -123 -41 -135 -4
-11 -15 -47 -24 -80 -10 -33 -21 -71 -25 -85 -5 -14 -18 -56 -29 -95 -11 -38
-37 -124 -57 -190 -20 -66 -42 -140 -49 -165 -16 -56 -119 -401 -264 -883 -61
-202 -112 -375 -113 -385 -3 -15 21 -16 271 -17 265 0 274 0 282 20 7 16 139
448 154 505 2 8 13 47 25 85 11 39 22 77 25 85 2 8 61 204 131 435 69 231 132
440 140 465 12 41 13 33 8 -95 -7 -201 -12 -333 -19 -465 -3 -63 -7 -169 -10
-235 -3 -66 -7 -167 -10 -225 -2 -58 -7 -163 -10 -235 -3 -71 -8 -176 -11
-231 -4 -78 -2 -102 8 -106 7 -2 120 -4 252 -4 l239 1 139 250 c77 138 155
279 175 315 60 108 129 233 153 275 13 22 39 69 58 105 19 36 49 90 67 120 18
30 46 80 62 110 72 132 98 179 133 240 21 36 54 97 75 135 21 39 41 74 45 78
4 5 -46 -171 -112 -390 -66 -219 -131 -434 -143 -478 -13 -44 -69 -230 -124
-414 -55 -184 -98 -337 -95 -340 3 -3 127 -6 275 -6 l269 0 31 100 c67 218
103 338 179 595 34 113 72 241 85 285 64 208 198 655 210 700 8 28 45 152 83
278 l70 227 -447 0 -446 0 -35 -68 c-19 -37 -52 -95 -72 -130 -21 -34 -38 -64
-38 -66 0 -5 -195 -355 -210 -376 -6 -8 -13 -22 -17 -30 -4 -8 -46 -85 -93
-170 -48 -85 -102 -182 -120 -215 -70 -129 -142 -255 -145 -255 -2 0 -2 35 0
78 2 42 6 147 10 232 3 85 8 198 10 250 7 133 14 328 20 510 3 85 8 174 10
198 l5 42 -445 0 c-413 0 -445 -1 -453 -17z"/>
<path d="M9321 2188 c-6 -18 -45 -148 -86 -288 -42 -140 -99 -329 -126 -420
-28 -91 -51 -169 -53 -175 -1 -5 -12 -41 -24 -80 -40 -131 -123 -410 -127
-430 -3 -11 -9 -31 -14 -45 -8 -20 -31 -98 -47 -155 -15 -56 -66 -226 -73
-245 -5 -14 -19 -59 -31 -100 -12 -41 -31 -104 -42 -139 -13 -41 -17 -66 -10
-70 5 -3 158 -6 339 -6 l328 0 18 55 c17 49 57 184 133 440 58 198 86 286 93
300 7 12 47 15 247 16 214 1 329 7 374 19 8 2 31 7 50 10 175 29 380 144 505
284 192 214 297 571 231 782 -33 104 -111 184 -225 229 -118 46 -184 50 -837
50 l-612 0 -11 -32z m869 -422 c87 -19 131 -64 138 -140 11 -136 -85 -266
-231 -312 -35 -11 -104 -18 -206 -21 l-154 -5 6 23 c10 46 30 114 82 284 20
66 39 129 42 140 11 40 19 42 160 39 76 -2 149 -5 163 -8z"/>
<path d="M11872 2208 c-10 -14 -42 -60 -284 -418 -351 -520 -678 -1004 -866
-1283 -59 -87 -111 -165 -117 -175 -5 -9 -12 -19 -15 -22 -9 -9 -180 -265
-180 -270 0 -8 674 -5 686 2 6 4 55 83 109 175 55 92 102 170 106 173 4 3 178
5 386 5 l378 0 1 -171 c0 -94 3 -175 6 -180 5 -7 664 -12 700 -5 3 0 4 18 3
39 -10 111 -16 174 -20 232 -3 36 -7 90 -10 120 -2 30 -7 96 -11 145 -3 50 -7
106 -9 125 -2 19 -6 73 -10 120 -3 47 -7 108 -10 135 -2 28 -6 93 -10 145 -3
52 -8 113 -11 135 -2 22 -6 72 -9 110 -2 39 -7 99 -10 135 -3 36 -7 97 -10
135 -5 80 -14 200 -20 264 -3 24 -7 82 -11 130 -3 47 -7 106 -9 131 -2 25 -4
53 -4 63 -1 16 -25 17 -370 17 -283 0 -371 -3 -379 -12z m202 -957 l3 -381
-238 0 -238 0 28 48 c15 26 86 142 156 257 71 116 133 219 139 230 34 62 141
234 144 231 2 -2 4 -175 6 -385z"/>
<path d="M13660 2216 c0 -2 -56 -190 -124 -418 -68 -227 -129 -429 -134 -448
-21 -72 -163 -547 -181 -605 -28 -89 -211 -700 -211 -706 0 -9 669 -4 678 6 7
9 37 98 47 143 2 9 53 178 112 375 l108 359 65 -4 c85 -5 134 -30 165 -82 28
-48 40 -92 135 -491 40 -165 74 -302 77 -305 6 -7 754 -7 758 0 3 5 -15 104
-34 185 -12 47 -30 129 -71 322 -33 158 -38 172 -82 260 -45 89 -81 128 -150
162 l-61 29 74 22 c100 28 123 38 199 78 190 101 337 269 409 468 37 101 40
116 46 220 7 125 -26 221 -102 298 -37 38 -134 91 -183 100 -14 2 -36 7 -50
10 -14 3 -41 9 -60 12 -39 8 -1430 18 -1430 10z m1022 -461 c67 -24 93 -67 85
-141 -16 -155 -116 -238 -327 -270 -46 -7 -360 -13 -360 -6 0 2 25 85 55 185
31 100 58 190 60 200 13 60 -3 56 228 53 170 -3 221 -7 259 -21z"/>
<path d="M15847 2213 c-3 -5 -33 -102 -67 -218 -34 -115 -69 -232 -77 -258 -9
-26 -13 -50 -10 -53 3 -3 156 -6 341 -6 185 0 336 -3 336 -7 0 -4 -9 -39 -21
-77 -12 -38 -34 -114 -51 -169 -16 -55 -39 -127 -49 -161 -11 -33 -21 -69 -24
-80 -2 -10 -36 -125 -75 -254 -67 -217 -95 -312 -105 -350 -2 -8 -29 -98 -60
-200 -31 -102 -58 -192 -60 -200 -2 -11 -44 -145 -45 -145 0 0 153 0 340 0
l340 0 25 85 c29 97 58 192 90 300 13 41 35 113 49 160 13 47 37 124 51 172
14 48 26 90 26 93 0 2 7 24 15 47 8 24 21 66 29 93 31 114 201 671 208 682 5
8 100 11 343 11 185 0 340 4 344 9 4 4 17 40 28 78 11 39 37 124 56 190 55
181 76 254 76 260 0 8 -2048 6 -2053 -2z"/>
</g>
</svg>
